<svg xmlns="http://www.w3.org/2000/svg" xmlns:xlink="http://www.w3.org/1999/xlink" version="1.1" x="0px" y="0px" viewBox="0 0 100 125" enable-background="new 0 0 100 100" xml:space="preserve"><path d="M87.8,50c0-20.9-16.9-37.8-37.8-37.8S12.2,29.1,12.2,50S29.1,87.8,50,87.8c10.3,0,19.7-4.1,26.5-10.8l0.1,0  c0.6-0.6,1.3-1.3,1.9-1.9l-0.1,0C84.2,68.4,87.8,59.6,87.8,50z M50,14.9c19.4,0,35.1,15.8,35.1,35.1c0,9.2-3.5,17.5-9.3,23.8  l-13.9-6.6c-0.1,0-0.5-0.2-1-0.6c-1.5-1.3-1.5-4.8-1.4-5.9v-0.1c0-0.9,0.3-1.4,0.5-1.8c0.3-0.2,1.2-0.8,2-1.3l0.1-0.1  c1.5-1.3,2-4.4,2.1-5c0.1-0.9,0.1-1.5,0.1-1.6c0-0.8-0.2-1.5-0.7-1.9l-0.4-0.5c-0.1,0-0.1-0.1-0.1-0.2l0.1-2.8  c0-7.3-5.9-13.3-13.3-13.3c-7.2,0-13.2,5.9-13.3,13.1c0,0.3-0.1,2.5-0.1,3c0,0.1,0,0.2-0.1,0.3l-0.5,0.6c-0.3,0.3-0.7,0.9-0.7,1.8  c0,0,0,0.7,0.1,1.6c0.1,0.6,0.6,3.7,2.1,4.9v0.1c0.7,0.5,1.8,1.2,2,1.4c0.1,0.2,0.4,0.7,0.4,1.8v0.1c0.1,1.1,0.1,4.5-1.3,5.8  c-0.6,0.4-1,0.7-1.1,0.7l-13.1,6.2L24,73.6c-5.7-6.2-9.2-14.5-9.2-23.6C14.9,30.6,30.6,14.9,50,14.9z M50,85.1  c-9.2,0-17.6-3.6-23.9-9.4l2.7-1.3l0.2-0.1l9.5-4.5c0.7-0.2,1.4-0.8,1.8-1.1c2.5-2.2,2.3-7,2.2-7.9c0-1.4-0.3-2.5-0.9-3.3  c-0.3-0.5-1.2-1.1-2.6-2c-0.5-0.5-1-2.1-1.2-3.3c-0.1-0.7-0.1-1.3-0.1-1.3v-0.2l0.6-0.7c0.4-0.4,0.5-1.1,0.6-1.5v-0.2  c0,0,0.1-2.9,0.1-3.2c0.1-5.8,4.9-10.6,10.8-10.6c6,0,10.8,4.9,10.9,10.9l-0.1,3v0.1c0,0.4,0.2,1.1,0.6,1.5l0.5,0.6v0.1v0.1  c0,0,0,0.5-0.1,1.3c-0.2,1.2-0.7,2.8-1.2,3.3c-1.8,1.1-2.4,1.6-2.6,1.9l-0.1,0.1c-0.6,1-0.9,2-0.9,3.2c0,1-0.3,5.7,2.3,8  c0.3,0.3,1.1,0.8,1.8,1.1l10.8,5.1l2.1,1C67.6,81.6,59.2,85.1,50,85.1z"/><text x="0" y="115" fill="#000000" font-size="5px" font-weight="bold" font-family="'Helvetica Neue', Helvetica, Arial-Unicode, Arial, Sans-serif">Created by Yair Cohen</text><text x="0" y="120" fill="#000000" font-size="5px" font-weight="bold" font-family="'Helvetica Neue', Helvetica, Arial-Unicode, Arial, Sans-serif">from the Noun Project</text></svg>