<svg xmlns="http://www.w3.org/2000/svg" xmlns:xlink="http://www.w3.org/1999/xlink" version="1.0" x="0px" y="0px" viewBox="0 0 100 125" enable-background="new 0 0 100 100" xml:space="preserve"><path d="M93.3,17.6L65,7.6c-0.5-0.2-1.1-0.2-1.7,0l-27.5,9.7L8.3,7.6C7.6,7.4,6.7,7.5,6.1,8C5.4,8.4,5,9.2,5,10v70  c0,1,0.6,1.9,1.5,2.3l28.3,12.5c0.6,0.3,1.4,0.3,2,0l27.3-12.1l27.3,12.1c0.3,0.1,0.7,0.2,1,0.2c0.5,0,1-0.1,1.4-0.4  c0.7-0.5,1.1-1.2,1.1-2.1V20C95,18.9,94.3,18,93.3,17.6z M37.1,22.2l25.8-9.1v18.4c-3.4-3.2-7.9-5.2-12.9-5.2s-9.6,2-12.9,5.2V22.2z   M63.8,45c0,8.1-8.2,17-13.8,22.7C44.4,62,36.3,53.1,36.3,45c0-7.6,6.2-13.8,13.8-13.8S63.8,37.4,63.8,45z M34.6,89.2L10,78.4V13.5  l24.6,8.7v12.1c-2.1,3-3.3,6.7-3.3,10.6c0,3.8,1.3,7.7,3.3,11.3V89.2z M62.9,77.8L37.1,89.2V60.3c3.6,5.1,8.1,9.6,11.1,12.7  c0.5,0.5,1.1,0.7,1.8,0.7s1.3-0.2,1.8-0.7c3.1-3.1,7.6-7.6,11.1-12.7V77.8z M90,88.7L65.4,77.8V56.3c2-3.6,3.3-7.5,3.3-11.3  c0-4-1.2-7.6-3.3-10.6V13.1L90,21.8V88.7z"/><path d="M50,35c-5.5,0-10,4.5-10,10s4.5,10,10,10s10-4.5,10-10S55.5,35,50,35z M50,52.5c-4.1,0-7.5-3.4-7.5-7.5s3.4-7.5,7.5-7.5  s7.5,3.4,7.5,7.5S54.1,52.5,50,52.5z"/><text x="0" y="115" fill="#000000" font-size="5px" font-weight="bold" font-family="'Helvetica Neue', Helvetica, Arial-Unicode, Arial, Sans-serif">Created by Arthur Shlain</text><text x="0" y="120" fill="#000000" font-size="5px" font-weight="bold" font-family="'Helvetica Neue', Helvetica, Arial-Unicode, Arial, Sans-serif">from the Noun Project</text></svg>