<svg xmlns="http://www.w3.org/2000/svg" xmlns:xlink="http://www.w3.org/1999/xlink" version="1.1" x="0px" y="0px" viewBox="0 0 100 125" enable-background="new 0 0 100 100" xml:space="preserve"><path fill="#000000" d="M78.355,82.122c-0.742-2.941-1.443-5.719-0.801-7.752c2.497-7.897,1.296-18.098,0.175-25.084  c-0.92-5.681-1.518-11.504-2.096-17.137c-0.889-8.666-1.808-17.627-3.926-26.265c-0.193-0.78-0.929-1.369-1.711-1.369  c-0.443,0-0.834,0.188-1.094,0.525c-0.568,0.718-3.37,1.647-5.045,2.202c-0.802,0.266-1.495,0.496-1.965,0.691  c-0.167,0.072-0.558,0.24-0.661,0.646c-0.103,0.406,0.153,0.731,0.271,0.881c0.228,0.298,0.45,0.597,0.673,0.895l0.302,0.405  c0.249,0.328,0.506,1.914,0.32,7.607c-0.012,0.344-0.021,0.623-0.023,0.809c-0.022,1.21-0.39,2.346-0.745,3.296  c-0.216,0.577-0.624,1.027-1.044,1.432c-13.793-0.021-21.405-1.748-21.824-2.726L39.034,7.46c0.109-0.445,0.123-1.04-0.659-1.457  c-0.038-0.02-4.389-1.962-5.859-1.962c-0.322,0-0.563,0.083-0.737,0.252c-2.152,2.096-2.688,4.693-3.206,7.204  c-0.308,1.491-0.598,2.898-1.206,4.205c-0.471,1.017-0.977,2.014-1.483,3.01c-0.218,0.429-0.435,0.858-0.65,1.288  c-0.481,0.47-0.944,0.965-1.376,1.474c-0.057,0.067-0.099,0.146-0.122,0.231c-3.034,11.224-4.344,23.185-4.123,37.642  c0.027,1.823,0.015,3.786,0.002,5.83c-0.06,9.393-0.126,20.039,3.29,27.533c0.36,0.779,0.952,1.249,1.807,1.435  c4.804,1.054,10.132,1.545,16.768,1.545c3.529,0,7.118-0.134,10.589-0.263c3.432-0.127,6.98-0.26,10.43-0.26  c0.001,0,0.002,0,0.004,0c0.007,0,0.016,0,0.024,0c1.137-0.045,2.563,0.08,4.088,0.211c1.506,0.128,3.063,0.261,4.562,0.261  c2.431,0,4.129-0.357,5.341-1.123C80.806,91.825,79.504,86.67,78.355,82.122z M59.434,25.09c-0.2,0.097-0.407,0.177-0.628,0.218  c-1.589,0.278-3.463,0.42-5.571,0.42c-6.56,0-13.819-1.35-18.151-3.38c-0.907-3.081,0.75-6.938,2.213-10.346  c0.194-0.453,0.383-0.896,0.566-1.333l0.098,10.533c0,0.012,0.006,0.022,0.007,0.034C38.1,24.473,53.972,25.004,59.434,25.09z   M75.877,93.501c-0.999,0.631-2.537,0.938-4.701,0.938c-1.448,0-2.979-0.13-4.459-0.257c-1.329-0.113-2.585-0.221-3.675-0.223  c-0.072-0.014-0.154-0.021-0.247-0.021c-0.419,0-0.74,0-0.98,0.031c-3.254,0.016-6.573,0.14-9.79,0.259  c-3.46,0.129-7.039,0.262-10.545,0.262c-6.547,0-11.793-0.481-16.512-1.517c-0.489-0.106-0.771-0.329-0.973-0.764  c-3.305-7.25-3.239-17.756-3.18-27.024c0.013-2.054,0.025-4.024-0.001-5.855c-0.219-14.286,1.067-26.105,4.046-37.18  c0.404-0.469,0.835-0.926,1.283-1.358c0.049-0.048,0.09-0.103,0.12-0.164c0.228-0.458,0.46-0.915,0.692-1.371  c0.512-1.009,1.024-2.019,1.501-3.048c0.667-1.432,0.985-2.975,1.293-4.468c0.496-2.402,0.964-4.674,2.779-6.499  c1.06,0.011,4.849,1.613,5.291,1.826c0.031,0.016,0.053,0.03,0.067,0.036c-0.004,0.027-0.013,0.066-0.029,0.124  c-0.378,1.313-1.001,2.765-1.662,4.302c-1.566,3.647-3.342,7.781-2.22,11.295c0.079,0.27,0.271,0.47,0.543,0.584  c4.428,2.106,11.95,3.521,18.717,3.521c2.178,0,4.121-0.147,5.785-0.439c1.082-0.203,1.884-0.872,2.618-1.544  c0.558-0.523,1.181-1.157,1.515-2.051c0.393-1.046,0.796-2.304,0.821-3.695c0.004-0.183,0.013-0.456,0.023-0.792  c0.144-4.391,0.103-7.494-0.561-8.369l-0.299-0.4c-0.173-0.232-0.346-0.464-0.524-0.7c0.417-0.157,0.983-0.345,1.622-0.557  c2.73-0.905,4.877-1.67,5.613-2.602c0.016-0.021,0.05-0.064,0.148-0.064c0.209,0,0.479,0.184,0.546,0.456  c2.098,8.556,3.013,17.475,3.897,26.1c0.579,5.649,1.179,11.491,2.104,17.206c1.102,6.864,2.286,16.877-0.135,24.531  c-0.744,2.358-0.003,5.296,0.782,8.406C78.342,86.971,79.429,91.272,75.877,93.501z"/><text x="0" y="115" fill="#000000" font-size="5px" font-weight="bold" font-family="'Helvetica Neue', Helvetica, Arial-Unicode, Arial, Sans-serif">Created by S. Salinas</text><text x="0" y="120" fill="#000000" font-size="5px" font-weight="bold" font-family="'Helvetica Neue', Helvetica, Arial-Unicode, Arial, Sans-serif">from the Noun Project</text></svg>