<svg xmlns="http://www.w3.org/2000/svg" xmlns:xlink="http://www.w3.org/1999/xlink" version="1.1" x="0px" y="0px" viewBox="0 0 100 125" enable-background="new 0 0 100 100" xml:space="preserve"><path d="M52.218,8.031c2.2,0,3.989,1.79,3.989,3.989s-1.79,3.989-3.989,3.989s-3.989-1.79-3.989-3.989S50.018,8.031,52.218,8.031   M52.218,5.04c-3.856,0-6.981,3.126-6.981,6.981s3.125,6.981,6.981,6.981c3.855,0,6.981-3.126,6.981-6.981S56.073,5.04,52.218,5.04  L52.218,5.04z M77.256,60.385c-1.899,0-3.723,0.316-5.432,0.882l-4.99-10.978l0.807-2.244c2.33,0.012,4.564,0.024,4.564,0.024  v-3.142h-6.667l0.424-1.864c0.163-0.522,0.25-1.076,0.25-1.652c0-0.566-0.086-1.112-0.243-1.626l0.033-0.006l-2.629-13.423  c-0.022-0.172-0.041-0.343-0.074-0.515c-0.831-4.243-4.944-7.009-9.187-6.178c-4.13,0.809-6.85,4.728-6.226,8.849l-0.015,0.003  l0.058,0.294c0.003,0.014,0.003,0.027,0.006,0.041s0.007,0.026,0.01,0.04l0.576,2.94l-9.212,8.436l0.012,0.013  c-0.266,0.277-0.462,0.595-0.588,0.937h-1.055h-0.019c-1.647,0-4.973,0.927-6.42,4.326H6.026l4.343,16.444h5.212  C9.636,64.726,5.502,70.723,5.502,77.7c0,9.564,7.752,17.317,17.315,17.317c9.564,0,17.316-7.753,17.316-17.317  c0-7.056-4.229-13.116-10.284-15.814c0.425-1.322,0.845-2.635,1.252-3.9c6.753,7.657,10.707,12.138,13.033,14.772l1.045,4.915  l2.862-0.608c2.045,1.794,4.136,2.294,6.507,2.435l0.316,5.433l6.034-0.351l-0.088-1.51c2.262,6.93,8.762,11.944,16.448,11.944  c9.564,0,17.315-7.753,17.315-17.317C94.571,68.137,86.82,60.385,77.256,60.385z M60.006,69.254l5.018-13.94l2.422,5.327  l0.001,0.003l0.985,2.167l0,0l0.004,0.009c-4.133,2.455-7.156,6.574-8.139,11.438L60.006,69.254z M69.981,66.22l2.57,5.655  l1.804,3.97h-9.991h-0.572C64.346,71.794,66.677,68.318,69.981,66.22z M43.843,44.926h0.019v-1.478l5.878-5.383l0.924,4.718l0,0  l0.629,3.212l-5.176,4.497H33.53c0.614-1.908,1.001-3.117,1.01-3.144c0.74-2.297,2.914-2.415,3.137-2.421H43.843z M26.582,55.082  v-2.796h2.453c-0.281,0.876-0.582,1.812-0.899,2.796H26.582z M27.495,57.077c-0.298,0.928-0.604,1.879-0.913,2.841v-2.841H27.495z   M24.588,55.082h-3.866v-2.796h3.866V55.082z M29.676,50.292h-3.094v-2.756h3.979C30.339,48.229,30.035,49.173,29.676,50.292z   M24.588,50.292h-3.866v-2.756h3.866V50.292z M18.727,50.292h-4.003v-2.756h4.003V50.292z M18.727,52.286v2.796h-4.003v-2.796  H18.727z M18.727,57.077v2.913h-4.003v-2.913H18.727z M20.721,57.077h3.866v2.913h-3.866V57.077z M12.73,47.535v2.756H9.343  l-0.728-2.756H12.73z M9.87,52.286h2.86v2.796h-1.998v0.464L9.87,52.286z M11.135,57.077h1.594v2.913h-0.825L11.135,57.077z   M36.423,77.7c0,7.513-6.091,13.606-13.606,13.606c-7.514,0-13.604-6.093-13.604-13.606c0-7.512,6.091-13.604,13.604-13.604  c0.805,0,1.588,0.084,2.355,0.218c-2.171,6.756-4.12,12.82-4.12,12.82l0.008,0.003c-0.058,0.178-0.097,0.366-0.097,0.565  c0,1.025,0.832,1.855,1.855,1.855c0.827,0,1.519-0.542,1.76-1.289l0.007,0.002c0,0,1.95-6.064,4.12-12.819  C33.265,67.646,36.423,72.299,36.423,77.7z M32.712,54.201h0.019h9.117l-0.473,0.411l0.022,0.025  c-0.416,0.481-0.677,1.1-0.677,1.786c0,0.142,0.021,0.279,0.042,0.415l-0.011,0.002l0.021,0.099  c0.005,0.026,0.011,0.051,0.016,0.077l1.776,8.356C39.302,61.674,35.588,57.464,32.712,54.201z M50.669,74.435l-3.05-14.35  l6.771-5.884h1.258l-1.992,8.76l0.025,0.006c-0.016,0.082-0.041,0.161-0.049,0.246c-0.015,0.155-0.009,0.306,0.002,0.457l-0.007,0  l0.615,10.589l-0.517,1.436C52.492,75.531,51.571,75.18,50.669,74.435z M77.256,91.306c-6.883,0-12.556-5.117-13.464-11.75h12.128  h1.317h0.019c1.024,0,1.856-0.83,1.856-1.855c0-0.273-0.064-0.532-0.17-0.765l0.004-0.002L73.37,64.667  c1.232-0.366,2.535-0.571,3.886-0.571c7.514,0,13.604,6.092,13.604,13.604C90.861,85.213,84.77,91.306,77.256,91.306z"/><text x="0" y="115" fill="#000000" font-size="5px" font-weight="bold" font-family="'Helvetica Neue', Helvetica, Arial-Unicode, Arial, Sans-serif">Created by Piotrek Chuchla</text><text x="0" y="120" fill="#000000" font-size="5px" font-weight="bold" font-family="'Helvetica Neue', Helvetica, Arial-Unicode, Arial, Sans-serif">from the Noun Project</text></svg>