<svg xmlns="http://www.w3.org/2000/svg" xmlns:xlink="http://www.w3.org/1999/xlink" version="1.1" x="0px" y="0px" viewBox="0 0 100 125" enable-background="new 0 0 100 100" xml:space="preserve"><g><path d="M99.998,52.146c0-2.306-1.424-5.871-4.283-10.716c-2.141-3.41-4.291-6.792-6.422-10.124L67.734,43.688l11.191,19.406   l-9.166-0.116l0.475-9.767L51.777,75.36l18.816,22.264L70.477,87.5l3.809,0.242c3.332,0.232,6.83-1.744,10.473-5.959   c2.693-3.013,5.561-7.295,8.574-12.856c1.832-3.643,3.652-7.267,5.475-10.831h-0.117C99.562,55.789,99.998,53.812,99.998,52.146z    M84.875,77.143c-3.799,5.639-7.336,8.371-10.59,8.216l-6.076-0.232v6.182L54.762,75.36l12.857-15.482l-0.242,5.357   c1.82,0,4.572,0,8.215,0c3.652,0.088,6.395,0.126,8.217,0.126c4.049,0,6.984-0.368,8.816-1.075   C90.076,68.568,87.5,72.86,84.875,77.143z M84.166,63.095h-2.498L70.951,44.521l17.508-10.125c1.822,2.945,3.643,5.833,5.465,8.701   c2.537,4.359,3.816,7.421,3.816,9.165C97.74,59.49,93.217,63.095,84.166,63.095z"/><path d="M30.347,55.111l8.216,5.125l-9.999-27.021L0.002,38.446l8.797,5c-2.219,3.42-3.333,6.355-3.333,8.816   c0,3.565,1.87,8.769,5.6,15.599c0.232,0.388,3.255,5.31,9.049,14.756v-0.116c3.178,3.962,7.896,5.958,14.165,5.958   c1.434,0,3.691-0.126,6.782-0.368c3.1-0.232,5.445-0.349,7.034-0.349V62.979h-22.38L30.347,55.111z M11.784,63.095   c-2.703-4.999-4.05-8.574-4.05-10.716c0-1.744,0.436-3.449,1.308-5.115c0.078-0.155,1.076-1.705,2.975-4.651l-5.348-3.09   l20.472-3.691l6.908,18.932l-4.409-2.858c-2.141,3.497-4.292,6.985-6.423,10.474c-3.255,5.483-5.048,9.407-5.367,11.79   C15.795,70.516,13.76,66.824,11.784,63.095z M45.83,65.235v20.239H28.681c-2.054,0-4.021-1.085-5.891-3.274   C20.93,80.021,20,77.859,20,75.709c0-2.296,1.463-5.794,4.399-10.474H45.83z"/><path d="M77.26,34.048l9.523-27.264l-8.574,5.232c-1.822-3.333-3.449-5.629-4.883-6.898c-2.055-1.744-4.719-2.577-7.965-2.5V2.376   H38.098c-4.127,0-7.867,2.703-11.2,8.09C24.592,14.923,22.296,19.36,20,23.808l21.547,12.624l11.189-19.532l4.41,7.983   l-8.333,4.398L77.26,34.048z M40.714,33.215L23.09,22.975l8.574-14.882c1.347-2.296,3.372-3.459,6.065-3.459h20.84   c-1.59,1.124-2.896,2.548-3.924,4.292L40.714,33.215z M54.045,14.516c2.064-3.564,3.527-5.832,4.398-6.781   c1.918-1.899,4.369-2.858,7.383-2.858c2.867,0,5.291,1.114,7.268,3.333c0.561,0.64,1.984,2.936,4.281,6.908l5.125-3.101   l-6.791,19.532l-19.881-3.333l4.533-2.384L54.045,14.516z"/></g><text x="0" y="115" fill="#000000" font-size="5px" font-weight="bold" font-family="'Helvetica Neue', Helvetica, Arial-Unicode, Arial, Sans-serif">Created by Vicons Design</text><text x="0" y="120" fill="#000000" font-size="5px" font-weight="bold" font-family="'Helvetica Neue', Helvetica, Arial-Unicode, Arial, Sans-serif">from the Noun Project</text></svg>